<mxfile host="app.diagrams.net" modified="2023-05-30T17:26:58.873Z" agent="Mozilla/5.0 (Macintosh; Intel Mac OS X 10_15_7) AppleWebKit/537.36 (KHTML, like Gecko) Chrome/113.0.0.0 Safari/537.36" etag="jZWPlKas5jhsPN1QkIvp" version="21.3.4" type="github">
  <diagram name="Page-1" id="34WbG06q4X-tlrVfDNdB">
    <mxGraphModel dx="2074" dy="1156" grid="1" gridSize="10" guides="1" tooltips="1" connect="1" arrows="1" fold="1" page="1" pageScale="1" pageWidth="850" pageHeight="1100" math="0" shadow="0">
      <root>
        <mxCell id="0" />
        <mxCell id="1" parent="0" />
        <mxCell id="yayjriu8w-TX4j0VbP-U-9" value="" style="edgeStyle=orthogonalEdgeStyle;rounded=0;orthogonalLoop=1;jettySize=auto;html=1;" edge="1" parent="1" source="yayjriu8w-TX4j0VbP-U-1" target="yayjriu8w-TX4j0VbP-U-6">
          <mxGeometry relative="1" as="geometry" />
        </mxCell>
        <mxCell id="yayjriu8w-TX4j0VbP-U-1" value="Device Reduce" style="rounded=0;whiteSpace=wrap;html=1;fillColor=#e1d5e7;strokeColor=#9673a6;" vertex="1" parent="1">
          <mxGeometry x="600" y="200" width="120" height="40" as="geometry" />
        </mxCell>
        <mxCell id="yayjriu8w-TX4j0VbP-U-4" value="" style="edgeStyle=orthogonalEdgeStyle;rounded=0;orthogonalLoop=1;jettySize=auto;html=1;" edge="1" parent="1" source="yayjriu8w-TX4j0VbP-U-2" target="yayjriu8w-TX4j0VbP-U-3">
          <mxGeometry relative="1" as="geometry" />
        </mxCell>
        <mxCell id="yayjriu8w-TX4j0VbP-U-2" value="Sdaa Launch Host" style="rounded=0;whiteSpace=wrap;html=1;fillColor=#d5e8d4;strokeColor=#82b366;" vertex="1" parent="1">
          <mxGeometry y="200" width="120" height="40" as="geometry" />
        </mxCell>
        <mxCell id="yayjriu8w-TX4j0VbP-U-14" value="" style="edgeStyle=orthogonalEdgeStyle;rounded=0;orthogonalLoop=1;jettySize=auto;html=1;" edge="1" parent="1" source="yayjriu8w-TX4j0VbP-U-3" target="yayjriu8w-TX4j0VbP-U-12">
          <mxGeometry relative="1" as="geometry" />
        </mxCell>
        <mxCell id="yayjriu8w-TX4j0VbP-U-3" value="Intra Card Sync" style="rounded=0;whiteSpace=wrap;html=1;fillColor=#d5e8d4;strokeColor=#82b366;" vertex="1" parent="1">
          <mxGeometry x="200" y="200" width="120" height="40" as="geometry" />
        </mxCell>
        <mxCell id="yayjriu8w-TX4j0VbP-U-10" value="" style="edgeStyle=orthogonalEdgeStyle;rounded=0;orthogonalLoop=1;jettySize=auto;html=1;" edge="1" parent="1" source="yayjriu8w-TX4j0VbP-U-6" target="yayjriu8w-TX4j0VbP-U-7">
          <mxGeometry relative="1" as="geometry" />
        </mxCell>
        <mxCell id="yayjriu8w-TX4j0VbP-U-6" value="Sync On Host" style="rounded=0;whiteSpace=wrap;html=1;fillColor=#d5e8d4;strokeColor=#82b366;" vertex="1" parent="1">
          <mxGeometry x="800" y="200" width="120" height="40" as="geometry" />
        </mxCell>
        <mxCell id="yayjriu8w-TX4j0VbP-U-11" value="" style="edgeStyle=orthogonalEdgeStyle;rounded=0;orthogonalLoop=1;jettySize=auto;html=1;" edge="1" parent="1" source="yayjriu8w-TX4j0VbP-U-7" target="yayjriu8w-TX4j0VbP-U-8">
          <mxGeometry relative="1" as="geometry" />
        </mxCell>
        <mxCell id="yayjriu8w-TX4j0VbP-U-7" value="1st P2P" style="rounded=0;whiteSpace=wrap;html=1;fillColor=#d5e8d4;strokeColor=#82b366;" vertex="1" parent="1">
          <mxGeometry x="1000" y="200" width="120" height="40" as="geometry" />
        </mxCell>
        <mxCell id="yayjriu8w-TX4j0VbP-U-16" value="" style="edgeStyle=orthogonalEdgeStyle;rounded=0;orthogonalLoop=1;jettySize=auto;html=1;" edge="1" parent="1" source="yayjriu8w-TX4j0VbP-U-8" target="yayjriu8w-TX4j0VbP-U-15">
          <mxGeometry relative="1" as="geometry" />
        </mxCell>
        <mxCell id="yayjriu8w-TX4j0VbP-U-8" value="1st Barrier&amp;nbsp;" style="rounded=0;whiteSpace=wrap;html=1;fillColor=#d5e8d4;strokeColor=#82b366;" vertex="1" parent="1">
          <mxGeometry x="1000" y="280" width="120" height="40" as="geometry" />
        </mxCell>
        <mxCell id="yayjriu8w-TX4j0VbP-U-13" value="" style="edgeStyle=orthogonalEdgeStyle;rounded=0;orthogonalLoop=1;jettySize=auto;html=1;" edge="1" parent="1" source="yayjriu8w-TX4j0VbP-U-12" target="yayjriu8w-TX4j0VbP-U-1">
          <mxGeometry relative="1" as="geometry" />
        </mxCell>
        <mxCell id="yayjriu8w-TX4j0VbP-U-12" value="Launch Kernel" style="rounded=0;whiteSpace=wrap;html=1;fillColor=#d5e8d4;strokeColor=#82b366;" vertex="1" parent="1">
          <mxGeometry x="400" y="200" width="120" height="40" as="geometry" />
        </mxCell>
        <mxCell id="yayjriu8w-TX4j0VbP-U-22" value="" style="edgeStyle=orthogonalEdgeStyle;rounded=0;orthogonalLoop=1;jettySize=auto;html=1;" edge="1" parent="1" source="yayjriu8w-TX4j0VbP-U-15" target="yayjriu8w-TX4j0VbP-U-21">
          <mxGeometry relative="1" as="geometry" />
        </mxCell>
        <mxCell id="yayjriu8w-TX4j0VbP-U-15" value="2nd P2P" style="rounded=0;whiteSpace=wrap;html=1;fillColor=#d5e8d4;strokeColor=#82b366;" vertex="1" parent="1">
          <mxGeometry x="800" y="280" width="120" height="40" as="geometry" />
        </mxCell>
        <mxCell id="yayjriu8w-TX4j0VbP-U-20" value="" style="edgeStyle=orthogonalEdgeStyle;rounded=0;orthogonalLoop=1;jettySize=auto;html=1;" edge="1" parent="1" source="yayjriu8w-TX4j0VbP-U-17" target="yayjriu8w-TX4j0VbP-U-19">
          <mxGeometry relative="1" as="geometry" />
        </mxCell>
        <mxCell id="yayjriu8w-TX4j0VbP-U-17" value="Device Reduce" style="rounded=0;whiteSpace=wrap;html=1;fillColor=#e1d5e7;strokeColor=#9673a6;" vertex="1" parent="1">
          <mxGeometry x="400" y="280" width="120" height="40" as="geometry" />
        </mxCell>
        <mxCell id="yayjriu8w-TX4j0VbP-U-26" value="" style="edgeStyle=orthogonalEdgeStyle;rounded=0;orthogonalLoop=1;jettySize=auto;html=1;" edge="1" parent="1" source="yayjriu8w-TX4j0VbP-U-19" target="yayjriu8w-TX4j0VbP-U-25">
          <mxGeometry relative="1" as="geometry" />
        </mxCell>
        <mxCell id="yayjriu8w-TX4j0VbP-U-19" value="Sync On Host&lt;br&gt;&amp;amp; Device Barrier" style="rounded=0;whiteSpace=wrap;html=1;fillColor=#d5e8d4;strokeColor=#82b366;" vertex="1" parent="1">
          <mxGeometry x="200" y="280" width="120" height="40" as="geometry" />
        </mxCell>
        <mxCell id="yayjriu8w-TX4j0VbP-U-23" value="" style="edgeStyle=orthogonalEdgeStyle;rounded=0;orthogonalLoop=1;jettySize=auto;html=1;" edge="1" parent="1" source="yayjriu8w-TX4j0VbP-U-21" target="yayjriu8w-TX4j0VbP-U-17">
          <mxGeometry relative="1" as="geometry" />
        </mxCell>
        <mxCell id="yayjriu8w-TX4j0VbP-U-21" value="Launch Kernel" style="rounded=0;whiteSpace=wrap;html=1;fillColor=#d5e8d4;strokeColor=#82b366;" vertex="1" parent="1">
          <mxGeometry x="600" y="280" width="120" height="40" as="geometry" />
        </mxCell>
        <mxCell id="yayjriu8w-TX4j0VbP-U-25" value="Launch Kernel&lt;br&gt;(next OP)" style="rounded=0;whiteSpace=wrap;html=1;fillColor=#d5e8d4;strokeColor=#82b366;" vertex="1" parent="1">
          <mxGeometry y="280" width="120" height="40" as="geometry" />
        </mxCell>
      </root>
    </mxGraphModel>
  </diagram>
</mxfile>
